G04 #@! TF.GenerationSoftware,KiCad,Pcbnew,(5.1.8-0-10_14)*
G04 #@! TF.CreationDate,2020-12-11T16:45:24+01:00*
G04 #@! TF.ProjectId,fluff,666c7566-662e-46b6-9963-61645f706362,rev?*
G04 #@! TF.SameCoordinates,Original*
G04 #@! TF.FileFunction,Soldermask,Top*
G04 #@! TF.FilePolarity,Negative*
%FSLAX46Y46*%
G04 Gerber Fmt 4.6, Leading zero omitted, Abs format (unit mm)*
G04 Created by KiCad (PCBNEW (5.1.8-0-10_14)) date 2020-12-11 16:45:24*
%MOMM*%
%LPD*%
G01*
G04 APERTURE LIST*
%ADD10C,0.150000*%
%ADD11C,0.300000*%
%ADD12O,2.640000X2.640000*%
%ADD13C,0.600000*%
%ADD14O,3.916000X3.916000*%
%ADD15O,2.030400X2.030400*%
%ADD16O,2.100000X2.100000*%
%ADD17O,2.132000X2.132000*%
%ADD18C,1.700000*%
G04 APERTURE END LIST*
D10*
X95242761Y-212288380D02*
X94766571Y-212288380D01*
X94766571Y-211288380D01*
X95576095Y-211764571D02*
X95909428Y-211764571D01*
X96052285Y-212288380D02*
X95576095Y-212288380D01*
X95576095Y-211288380D01*
X96052285Y-211288380D01*
X96480857Y-212288380D02*
X96480857Y-211288380D01*
X96718952Y-211288380D01*
X96861809Y-211336000D01*
X96957047Y-211431238D01*
X97004666Y-211526476D01*
X97052285Y-211716952D01*
X97052285Y-211859809D01*
X97004666Y-212050285D01*
X96957047Y-212145523D01*
X96861809Y-212240761D01*
X96718952Y-212288380D01*
X96480857Y-212288380D01*
X98576095Y-211764571D02*
X98718952Y-211812190D01*
X98766571Y-211859809D01*
X98814190Y-211955047D01*
X98814190Y-212097904D01*
X98766571Y-212193142D01*
X98718952Y-212240761D01*
X98623714Y-212288380D01*
X98242761Y-212288380D01*
X98242761Y-211288380D01*
X98576095Y-211288380D01*
X98671333Y-211336000D01*
X98718952Y-211383619D01*
X98766571Y-211478857D01*
X98766571Y-211574095D01*
X98718952Y-211669333D01*
X98671333Y-211716952D01*
X98576095Y-211764571D01*
X98242761Y-211764571D01*
X99814190Y-212288380D02*
X99480857Y-211812190D01*
X99242761Y-212288380D02*
X99242761Y-211288380D01*
X99623714Y-211288380D01*
X99718952Y-211336000D01*
X99766571Y-211383619D01*
X99814190Y-211478857D01*
X99814190Y-211621714D01*
X99766571Y-211716952D01*
X99718952Y-211764571D01*
X99623714Y-211812190D01*
X99242761Y-211812190D01*
X100242761Y-212288380D02*
X100242761Y-211288380D01*
X101242761Y-211336000D02*
X101147523Y-211288380D01*
X101004666Y-211288380D01*
X100861809Y-211336000D01*
X100766571Y-211431238D01*
X100718952Y-211526476D01*
X100671333Y-211716952D01*
X100671333Y-211859809D01*
X100718952Y-212050285D01*
X100766571Y-212145523D01*
X100861809Y-212240761D01*
X101004666Y-212288380D01*
X101099904Y-212288380D01*
X101242761Y-212240761D01*
X101290380Y-212193142D01*
X101290380Y-211859809D01*
X101099904Y-211859809D01*
X101718952Y-212288380D02*
X101718952Y-211288380D01*
X101718952Y-211764571D02*
X102290380Y-211764571D01*
X102290380Y-212288380D02*
X102290380Y-211288380D01*
X102623714Y-211288380D02*
X103195142Y-211288380D01*
X102909428Y-212288380D02*
X102909428Y-211288380D01*
X103528476Y-212288380D02*
X103528476Y-211288380D01*
X104099904Y-212288380D01*
X104099904Y-211288380D01*
X104576095Y-211764571D02*
X104909428Y-211764571D01*
X105052285Y-212288380D02*
X104576095Y-212288380D01*
X104576095Y-211288380D01*
X105052285Y-211288380D01*
X105433238Y-212240761D02*
X105576095Y-212288380D01*
X105814190Y-212288380D01*
X105909428Y-212240761D01*
X105957047Y-212193142D01*
X106004666Y-212097904D01*
X106004666Y-212002666D01*
X105957047Y-211907428D01*
X105909428Y-211859809D01*
X105814190Y-211812190D01*
X105623714Y-211764571D01*
X105528476Y-211716952D01*
X105480857Y-211669333D01*
X105433238Y-211574095D01*
X105433238Y-211478857D01*
X105480857Y-211383619D01*
X105528476Y-211336000D01*
X105623714Y-211288380D01*
X105861809Y-211288380D01*
X106004666Y-211336000D01*
X106385619Y-212240761D02*
X106528476Y-212288380D01*
X106766571Y-212288380D01*
X106861809Y-212240761D01*
X106909428Y-212193142D01*
X106957047Y-212097904D01*
X106957047Y-212002666D01*
X106909428Y-211907428D01*
X106861809Y-211859809D01*
X106766571Y-211812190D01*
X106576095Y-211764571D01*
X106480857Y-211716952D01*
X106433238Y-211669333D01*
X106385619Y-211574095D01*
X106385619Y-211478857D01*
X106433238Y-211383619D01*
X106480857Y-211336000D01*
X106576095Y-211288380D01*
X106814190Y-211288380D01*
X106957047Y-211336000D01*
D11*
X111087142Y-189997571D02*
X110520476Y-189997571D01*
X110520476Y-190888047D02*
X110520476Y-189188047D01*
X111330000Y-189188047D01*
X112220476Y-190888047D02*
X112058571Y-190807095D01*
X111977619Y-190645190D01*
X111977619Y-189188047D01*
X113596666Y-189754714D02*
X113596666Y-190888047D01*
X112868095Y-189754714D02*
X112868095Y-190645190D01*
X112949047Y-190807095D01*
X113110952Y-190888047D01*
X113353809Y-190888047D01*
X113515714Y-190807095D01*
X113596666Y-190726142D01*
X114163333Y-189754714D02*
X114810952Y-189754714D01*
X114406190Y-190888047D02*
X114406190Y-189430904D01*
X114487142Y-189269000D01*
X114649047Y-189188047D01*
X114810952Y-189188047D01*
X115134761Y-189754714D02*
X115782380Y-189754714D01*
X115377619Y-190888047D02*
X115377619Y-189430904D01*
X115458571Y-189269000D01*
X115620476Y-189188047D01*
X115782380Y-189188047D01*
D12*
X95504000Y-166370000D03*
X100584000Y-166370000D03*
G36*
G01*
X106984000Y-165100000D02*
X106984000Y-167640000D01*
G75*
G02*
X106934000Y-167690000I-50000J0D01*
G01*
X104394000Y-167690000D01*
G75*
G02*
X104344000Y-167640000I0J50000D01*
G01*
X104344000Y-165100000D01*
G75*
G02*
X104394000Y-165050000I50000J0D01*
G01*
X106934000Y-165050000D01*
G75*
G02*
X106984000Y-165100000I0J-50000D01*
G01*
G37*
D13*
X93714000Y-194806000D03*
X92214000Y-194806000D03*
X92214000Y-193306000D03*
X93714000Y-193306000D03*
X92964000Y-194806000D03*
X92964000Y-193306000D03*
X108966000Y-194806000D03*
X107466000Y-194806000D03*
X107466000Y-193306000D03*
X108966000Y-193306000D03*
X108216000Y-194806000D03*
X108216000Y-193306000D03*
G36*
G01*
X114226000Y-203324000D02*
X114226000Y-207140000D01*
G75*
G02*
X114176000Y-207190000I-50000J0D01*
G01*
X110360000Y-207190000D01*
G75*
G02*
X110310000Y-207140000I0J50000D01*
G01*
X110310000Y-203324000D01*
G75*
G02*
X110360000Y-203274000I50000J0D01*
G01*
X114176000Y-203274000D01*
G75*
G02*
X114226000Y-203324000I0J-50000D01*
G01*
G37*
D14*
X112268000Y-210312000D03*
X112268000Y-215392000D03*
X117348000Y-205232000D03*
X117348000Y-210312000D03*
X117348000Y-215392000D03*
X122428000Y-205232000D03*
X122428000Y-210312000D03*
X122428000Y-215392000D03*
G36*
G01*
X80698000Y-203324000D02*
X80698000Y-207140000D01*
G75*
G02*
X80648000Y-207190000I-50000J0D01*
G01*
X76832000Y-207190000D01*
G75*
G02*
X76782000Y-207140000I0J50000D01*
G01*
X76782000Y-203324000D01*
G75*
G02*
X76832000Y-203274000I50000J0D01*
G01*
X80648000Y-203274000D01*
G75*
G02*
X80698000Y-203324000I0J-50000D01*
G01*
G37*
X78740000Y-210312000D03*
X78740000Y-215392000D03*
X83820000Y-205232000D03*
X83820000Y-210312000D03*
X83820000Y-215392000D03*
X88900000Y-205232000D03*
X88900000Y-210312000D03*
X88900000Y-215392000D03*
D12*
X115316000Y-166370000D03*
X120396000Y-166370000D03*
G36*
G01*
X126796000Y-165100000D02*
X126796000Y-167640000D01*
G75*
G02*
X126746000Y-167690000I-50000J0D01*
G01*
X124206000Y-167690000D01*
G75*
G02*
X124156000Y-167640000I0J50000D01*
G01*
X124156000Y-165100000D01*
G75*
G02*
X124206000Y-165050000I50000J0D01*
G01*
X126746000Y-165050000D01*
G75*
G02*
X126796000Y-165100000I0J-50000D01*
G01*
G37*
D15*
X105156000Y-204216000D03*
X102616000Y-206756000D03*
X105156000Y-209296000D03*
X96012000Y-204216000D03*
X93472000Y-206756000D03*
X96012000Y-209296000D03*
D12*
X95504000Y-139954000D03*
X100584000Y-139954000D03*
G36*
G01*
X106984000Y-138684000D02*
X106984000Y-141224000D01*
G75*
G02*
X106934000Y-141274000I-50000J0D01*
G01*
X104394000Y-141274000D01*
G75*
G02*
X104344000Y-141224000I0J50000D01*
G01*
X104344000Y-138684000D01*
G75*
G02*
X104394000Y-138634000I50000J0D01*
G01*
X106934000Y-138634000D01*
G75*
G02*
X106984000Y-138684000I0J-50000D01*
G01*
G37*
X75692000Y-166370000D03*
X80772000Y-166370000D03*
G36*
G01*
X87172000Y-165100000D02*
X87172000Y-167640000D01*
G75*
G02*
X87122000Y-167690000I-50000J0D01*
G01*
X84582000Y-167690000D01*
G75*
G02*
X84532000Y-167640000I0J50000D01*
G01*
X84532000Y-165100000D01*
G75*
G02*
X84582000Y-165050000I50000J0D01*
G01*
X87122000Y-165050000D01*
G75*
G02*
X87172000Y-165100000I0J-50000D01*
G01*
G37*
X115316000Y-139954000D03*
X120396000Y-139954000D03*
G36*
G01*
X126796000Y-138684000D02*
X126796000Y-141224000D01*
G75*
G02*
X126746000Y-141274000I-50000J0D01*
G01*
X124206000Y-141274000D01*
G75*
G02*
X124156000Y-141224000I0J50000D01*
G01*
X124156000Y-138684000D01*
G75*
G02*
X124206000Y-138634000I50000J0D01*
G01*
X126746000Y-138634000D01*
G75*
G02*
X126796000Y-138684000I0J-50000D01*
G01*
G37*
X75692000Y-139954000D03*
X80772000Y-139954000D03*
G36*
G01*
X87172000Y-138684000D02*
X87172000Y-141224000D01*
G75*
G02*
X87122000Y-141274000I-50000J0D01*
G01*
X84582000Y-141274000D01*
G75*
G02*
X84532000Y-141224000I0J50000D01*
G01*
X84532000Y-138684000D01*
G75*
G02*
X84582000Y-138634000I50000J0D01*
G01*
X87122000Y-138634000D01*
G75*
G02*
X87172000Y-138684000I0J-50000D01*
G01*
G37*
D16*
X123190000Y-155956000D03*
X123190000Y-163576000D03*
X126238000Y-189992000D03*
X118618000Y-189992000D03*
X113792000Y-179578000D03*
X113792000Y-187198000D03*
X107696000Y-187198000D03*
X107696000Y-179578000D03*
X108458000Y-201168000D03*
X116078000Y-201168000D03*
X122936000Y-179578000D03*
X122936000Y-187198000D03*
X120396000Y-179578000D03*
X120396000Y-187198000D03*
X76200000Y-143002000D03*
X76200000Y-150622000D03*
X89916000Y-201168000D03*
X82296000Y-201168000D03*
X96520000Y-137160000D03*
X104140000Y-137160000D03*
X98806000Y-152400000D03*
X98806000Y-144780000D03*
X78740000Y-143002000D03*
X78740000Y-150622000D03*
X87884000Y-143256000D03*
X87884000Y-150876000D03*
X90678000Y-162306000D03*
X90678000Y-154686000D03*
X118872000Y-145796000D03*
X118872000Y-153416000D03*
X121412000Y-145796000D03*
X121412000Y-153416000D03*
X93218000Y-162306000D03*
X93218000Y-154686000D03*
X98806000Y-162560000D03*
X98806000Y-154940000D03*
X104394000Y-155448000D03*
X104394000Y-163068000D03*
X120650000Y-155956000D03*
X120650000Y-163576000D03*
X81280000Y-150622000D03*
X81280000Y-143002000D03*
X88138000Y-154686000D03*
X88138000Y-162306000D03*
X127508000Y-145796000D03*
X127508000Y-153416000D03*
X120396000Y-169418000D03*
X120396000Y-177038000D03*
X118110000Y-163576000D03*
X118110000Y-155956000D03*
X112268000Y-145796000D03*
X112268000Y-153416000D03*
X109728000Y-153416000D03*
X109728000Y-145796000D03*
X100584000Y-142748000D03*
X108204000Y-142748000D03*
X85598000Y-162306000D03*
X77978000Y-162306000D03*
X110998000Y-155702000D03*
X110998000Y-163322000D03*
X117856000Y-169418000D03*
X117856000Y-177038000D03*
X83820000Y-169418000D03*
X83820000Y-177038000D03*
X81534000Y-189992000D03*
X73914000Y-189992000D03*
X80772000Y-187198000D03*
X80772000Y-179578000D03*
X86614000Y-179578000D03*
X86614000Y-187198000D03*
X92964000Y-179578000D03*
X92964000Y-187198000D03*
X105156000Y-179578000D03*
X105156000Y-187198000D03*
X100838000Y-169418000D03*
X100838000Y-177038000D03*
X95758000Y-169418000D03*
X95758000Y-177038000D03*
X99060000Y-187198000D03*
X99060000Y-179578000D03*
X98298000Y-177038000D03*
X98298000Y-169418000D03*
X89662000Y-171704000D03*
X89662000Y-179324000D03*
X81280000Y-169418000D03*
X81280000Y-177038000D03*
X74676000Y-178562000D03*
X74676000Y-170942000D03*
X78232000Y-179578000D03*
X78232000Y-187198000D03*
D15*
X116840000Y-180340000D03*
X116840000Y-182880000D03*
G36*
G01*
X115874800Y-184404800D02*
X117805200Y-184404800D01*
G75*
G02*
X117855200Y-184454800I0J-50000D01*
G01*
X117855200Y-186385200D01*
G75*
G02*
X117805200Y-186435200I-50000J0D01*
G01*
X115874800Y-186435200D01*
G75*
G02*
X115824800Y-186385200I0J50000D01*
G01*
X115824800Y-184454800D01*
G75*
G02*
X115874800Y-184404800I50000J0D01*
G01*
G37*
X94996000Y-146558000D03*
X94996000Y-149098000D03*
G36*
G01*
X94030800Y-150622800D02*
X95961200Y-150622800D01*
G75*
G02*
X96011200Y-150672800I0J-50000D01*
G01*
X96011200Y-152603200D01*
G75*
G02*
X95961200Y-152653200I-50000J0D01*
G01*
X94030800Y-152653200D01*
G75*
G02*
X93980800Y-152603200I0J50000D01*
G01*
X93980800Y-150672800D01*
G75*
G02*
X94030800Y-150622800I50000J0D01*
G01*
G37*
X73406000Y-153670000D03*
X75946000Y-153670000D03*
G36*
G01*
X77470800Y-154635200D02*
X77470800Y-152704800D01*
G75*
G02*
X77520800Y-152654800I50000J0D01*
G01*
X79451200Y-152654800D01*
G75*
G02*
X79501200Y-152704800I0J-50000D01*
G01*
X79501200Y-154635200D01*
G75*
G02*
X79451200Y-154685200I-50000J0D01*
G01*
X77520800Y-154685200D01*
G75*
G02*
X77470800Y-154635200I0J50000D01*
G01*
G37*
X115316000Y-147066000D03*
X115316000Y-149606000D03*
G36*
G01*
X114350800Y-151130800D02*
X116281200Y-151130800D01*
G75*
G02*
X116331200Y-151180800I0J-50000D01*
G01*
X116331200Y-153111200D01*
G75*
G02*
X116281200Y-153161200I-50000J0D01*
G01*
X114350800Y-153161200D01*
G75*
G02*
X114300800Y-153111200I0J50000D01*
G01*
X114300800Y-151180800D01*
G75*
G02*
X114350800Y-151130800I50000J0D01*
G01*
G37*
X107442000Y-155702000D03*
X107442000Y-158242000D03*
G36*
G01*
X106476800Y-159766800D02*
X108407200Y-159766800D01*
G75*
G02*
X108457200Y-159816800I0J-50000D01*
G01*
X108457200Y-161747200D01*
G75*
G02*
X108407200Y-161797200I-50000J0D01*
G01*
X106476800Y-161797200D01*
G75*
G02*
X106426800Y-161747200I0J50000D01*
G01*
X106426800Y-159816800D01*
G75*
G02*
X106476800Y-159766800I50000J0D01*
G01*
G37*
X73914000Y-181610000D03*
X73914000Y-184150000D03*
G36*
G01*
X72948800Y-185674800D02*
X74879200Y-185674800D01*
G75*
G02*
X74929200Y-185724800I0J-50000D01*
G01*
X74929200Y-187655200D01*
G75*
G02*
X74879200Y-187705200I-50000J0D01*
G01*
X72948800Y-187705200D01*
G75*
G02*
X72898800Y-187655200I0J50000D01*
G01*
X72898800Y-185724800D01*
G75*
G02*
X72948800Y-185674800I50000J0D01*
G01*
G37*
G36*
G01*
X88696800Y-180848800D02*
X90627200Y-180848800D01*
G75*
G02*
X90677200Y-180898800I0J-50000D01*
G01*
X90677200Y-182829200D01*
G75*
G02*
X90627200Y-182879200I-50000J0D01*
G01*
X88696800Y-182879200D01*
G75*
G02*
X88646800Y-182829200I0J50000D01*
G01*
X88646800Y-180898800D01*
G75*
G02*
X88696800Y-180848800I50000J0D01*
G01*
G37*
X89662000Y-184404000D03*
X89662000Y-186944000D03*
X110744000Y-171958000D03*
X110744000Y-174498000D03*
G36*
G01*
X109778800Y-176022800D02*
X111709200Y-176022800D01*
G75*
G02*
X111759200Y-176072800I0J-50000D01*
G01*
X111759200Y-178003200D01*
G75*
G02*
X111709200Y-178053200I-50000J0D01*
G01*
X109778800Y-178053200D01*
G75*
G02*
X109728800Y-178003200I0J50000D01*
G01*
X109728800Y-176072800D01*
G75*
G02*
X109778800Y-176022800I50000J0D01*
G01*
G37*
X77724000Y-176022000D03*
X77724000Y-173482000D03*
G36*
G01*
X78689200Y-171957200D02*
X76758800Y-171957200D01*
G75*
G02*
X76708800Y-171907200I0J50000D01*
G01*
X76708800Y-169976800D01*
G75*
G02*
X76758800Y-169926800I50000J0D01*
G01*
X78689200Y-169926800D01*
G75*
G02*
X78739200Y-169976800I0J-50000D01*
G01*
X78739200Y-171907200D01*
G75*
G02*
X78689200Y-171957200I-50000J0D01*
G01*
G37*
D17*
X123444000Y-197104000D03*
X99568000Y-197104000D03*
X104394000Y-189992000D03*
X106934000Y-189992000D03*
X94488000Y-197104000D03*
X104648000Y-197104000D03*
X102108000Y-197104000D03*
X97028000Y-197104000D03*
X109220000Y-137668000D03*
X111760000Y-137668000D03*
X77724000Y-197104000D03*
X107188000Y-197104000D03*
X94234000Y-189992000D03*
X72898000Y-138176000D03*
X99314000Y-189992000D03*
X101854000Y-189992000D03*
X96774000Y-189992000D03*
D16*
X118618000Y-197104000D03*
G36*
G01*
X115028000Y-198104000D02*
X115028000Y-196104000D01*
G75*
G02*
X115078000Y-196054000I50000J0D01*
G01*
X117078000Y-196054000D01*
G75*
G02*
X117128000Y-196104000I0J-50000D01*
G01*
X117128000Y-198104000D01*
G75*
G02*
X117078000Y-198154000I-50000J0D01*
G01*
X115078000Y-198154000D01*
G75*
G02*
X115028000Y-198104000I0J50000D01*
G01*
G37*
G36*
G01*
X100804000Y-148828000D02*
X100804000Y-146828000D01*
G75*
G02*
X100854000Y-146778000I50000J0D01*
G01*
X102854000Y-146778000D01*
G75*
G02*
X102904000Y-146828000I0J-50000D01*
G01*
X102904000Y-148828000D01*
G75*
G02*
X102854000Y-148878000I-50000J0D01*
G01*
X100854000Y-148878000D01*
G75*
G02*
X100804000Y-148828000I0J50000D01*
G01*
G37*
X106934000Y-147828000D03*
X84836000Y-197104000D03*
G36*
G01*
X81246000Y-198104000D02*
X81246000Y-196104000D01*
G75*
G02*
X81296000Y-196054000I50000J0D01*
G01*
X83296000Y-196054000D01*
G75*
G02*
X83346000Y-196104000I0J-50000D01*
G01*
X83346000Y-198104000D01*
G75*
G02*
X83296000Y-198154000I-50000J0D01*
G01*
X81296000Y-198154000D01*
G75*
G02*
X81246000Y-198104000I0J50000D01*
G01*
G37*
G36*
G01*
X83024000Y-190992000D02*
X83024000Y-188992000D01*
G75*
G02*
X83074000Y-188942000I50000J0D01*
G01*
X85074000Y-188942000D01*
G75*
G02*
X85124000Y-188992000I0J-50000D01*
G01*
X85124000Y-190992000D01*
G75*
G02*
X85074000Y-191042000I-50000J0D01*
G01*
X83074000Y-191042000D01*
G75*
G02*
X83024000Y-190992000I0J50000D01*
G01*
G37*
X91694000Y-189992000D03*
X73660000Y-159766000D03*
G36*
G01*
X72660000Y-156176000D02*
X74660000Y-156176000D01*
G75*
G02*
X74710000Y-156226000I0J-50000D01*
G01*
X74710000Y-158226000D01*
G75*
G02*
X74660000Y-158276000I-50000J0D01*
G01*
X72660000Y-158276000D01*
G75*
G02*
X72610000Y-158226000I0J50000D01*
G01*
X72610000Y-156226000D01*
G75*
G02*
X72660000Y-156176000I50000J0D01*
G01*
G37*
G36*
G01*
X107984000Y-149368000D02*
X107984000Y-151368000D01*
G75*
G02*
X107934000Y-151418000I-50000J0D01*
G01*
X105934000Y-151418000D01*
G75*
G02*
X105884000Y-151368000I0J50000D01*
G01*
X105884000Y-149368000D01*
G75*
G02*
X105934000Y-149318000I50000J0D01*
G01*
X107934000Y-149318000D01*
G75*
G02*
X107984000Y-149368000I0J-50000D01*
G01*
G37*
X101854000Y-150368000D03*
X77978000Y-157226000D03*
G36*
G01*
X78978000Y-160816000D02*
X76978000Y-160816000D01*
G75*
G02*
X76928000Y-160766000I0J50000D01*
G01*
X76928000Y-158766000D01*
G75*
G02*
X76978000Y-158716000I50000J0D01*
G01*
X78978000Y-158716000D01*
G75*
G02*
X79028000Y-158766000I0J-50000D01*
G01*
X79028000Y-160766000D01*
G75*
G02*
X78978000Y-160816000I-50000J0D01*
G01*
G37*
G36*
G01*
X105140000Y-177580000D02*
X103140000Y-177580000D01*
G75*
G02*
X103090000Y-177530000I0J50000D01*
G01*
X103090000Y-175530000D01*
G75*
G02*
X103140000Y-175480000I50000J0D01*
G01*
X105140000Y-175480000D01*
G75*
G02*
X105190000Y-175530000I0J-50000D01*
G01*
X105190000Y-177530000D01*
G75*
G02*
X105140000Y-177580000I-50000J0D01*
G01*
G37*
X104140000Y-171450000D03*
G36*
G01*
X105680000Y-170146000D02*
X107680000Y-170146000D01*
G75*
G02*
X107730000Y-170196000I0J-50000D01*
G01*
X107730000Y-172196000D01*
G75*
G02*
X107680000Y-172246000I-50000J0D01*
G01*
X105680000Y-172246000D01*
G75*
G02*
X105630000Y-172196000I0J50000D01*
G01*
X105630000Y-170196000D01*
G75*
G02*
X105680000Y-170146000I50000J0D01*
G01*
G37*
X106680000Y-176276000D03*
D18*
X110744000Y-180848000D03*
X110744000Y-185848000D03*
X125984000Y-180594000D03*
X125984000Y-185594000D03*
X73406000Y-150288000D03*
X73406000Y-145288000D03*
D16*
X85090000Y-153670000D03*
X85090000Y-158750000D03*
D18*
X114808000Y-175942000D03*
X114808000Y-170942000D03*
X126746000Y-171022000D03*
X126746000Y-176022000D03*
X115824000Y-143002000D03*
X110824000Y-143002000D03*
X95932000Y-143256000D03*
X90932000Y-143256000D03*
X96012000Y-156036000D03*
X96012000Y-161036000D03*
X123872000Y-143002000D03*
X118872000Y-143002000D03*
X123444000Y-175942000D03*
X123444000Y-170942000D03*
D16*
X84582000Y-149352000D03*
X84582000Y-144272000D03*
D18*
X124460000Y-147146000D03*
X124460000Y-152146000D03*
X81534000Y-153670000D03*
X81534000Y-158670000D03*
X90932000Y-151558000D03*
X90932000Y-146558000D03*
X101600000Y-156036000D03*
X101600000Y-161036000D03*
D16*
X114554000Y-162052000D03*
X114554000Y-156972000D03*
D18*
X90678000Y-166410000D03*
G36*
G01*
X91478000Y-169760000D02*
X89878000Y-169760000D01*
G75*
G02*
X89828000Y-169710000I0J50000D01*
G01*
X89828000Y-168110000D01*
G75*
G02*
X89878000Y-168060000I50000J0D01*
G01*
X91478000Y-168060000D01*
G75*
G02*
X91528000Y-168110000I0J-50000D01*
G01*
X91528000Y-169710000D01*
G75*
G02*
X91478000Y-169760000I-50000J0D01*
G01*
G37*
X110744000Y-166370000D03*
G36*
G01*
X111544000Y-169720000D02*
X109944000Y-169720000D01*
G75*
G02*
X109894000Y-169670000I0J50000D01*
G01*
X109894000Y-168070000D01*
G75*
G02*
X109944000Y-168020000I50000J0D01*
G01*
X111544000Y-168020000D01*
G75*
G02*
X111594000Y-168070000I0J-50000D01*
G01*
X111594000Y-169670000D01*
G75*
G02*
X111544000Y-169720000I-50000J0D01*
G01*
G37*
X86868000Y-175688000D03*
X86868000Y-170688000D03*
X83820000Y-186102000D03*
X83820000Y-181102000D03*
X102108000Y-180928000D03*
X102108000Y-185928000D03*
X96012000Y-180928000D03*
X96012000Y-185928000D03*
X92710000Y-171784000D03*
X92710000Y-176784000D03*
M02*
