M48
; DRILL file {KiCad (5.1.8-0-10_14)} date Friday, December 11, 2020 at 04:45:27 PM
; FORMAT={-:-/ absolute / inch / decimal}
; #@! TF.CreationDate,2020-12-11T16:45:27+01:00
; #@! TF.GenerationSoftware,Kicad,Pcbnew,(5.1.8-0-10_14)
; #@! TF.FileFunction,Plated,1,2,PTH
FMAT,2
INCH
T1C0.0315
T2C0.0394
T3C0.0472
T4C0.0551
T5C0.1102
%
G90
G05
T1
X3.57Y-6.5516
X3.57Y-6.65
X3.21Y-6.05
X3.21Y-6.2469
X4.3631Y-5.63
X4.56Y-5.63
X4.0Y-6.1431
X4.0Y-6.34
X4.36Y-7.12
X4.36Y-7.3169
X3.3Y-7.13
X3.3Y-7.3269
X4.9Y-5.7931
X4.9Y-5.99
X2.89Y-5.72
X2.89Y-5.9169
X4.99Y-6.7331
X4.99Y-6.93
X3.58Y-5.77
X3.58Y-5.9669
X4.52Y-6.73
X4.52Y-6.9269
X4.36Y-6.55
X4.36Y-6.6484
X3.42Y-6.72
X3.42Y-6.9169
X4.96Y-7.11
X4.96Y-7.3069
X3.65Y-6.7631
X3.65Y-6.96
X3.78Y-6.1431
X3.78Y-6.34
X4.86Y-6.73
X4.86Y-6.9269
X3.78Y-7.1231
X3.78Y-7.32
X3.58Y-5.64
X3.7769Y-5.64
X4.68Y-5.63
X4.8769Y-5.63
X4.02Y-7.1231
X4.02Y-7.32
T2
X4.67Y-7.48
X4.97Y-7.48
X3.24Y-7.76
X3.34Y-7.76
X4.37Y-6.13
X4.37Y-6.43
X3.41Y-7.07
X3.41Y-7.37
X3.97Y-6.67
X3.97Y-6.97
X3.07Y-6.19
X3.07Y-6.29
X4.68Y-5.74
X4.68Y-6.04
X3.53Y-7.16
X3.53Y-7.26
X3.53Y-7.36
X3.33Y-5.68
X3.33Y-5.88
X3.24Y-7.92
X3.54Y-7.92
X3.53Y-6.76
X3.53Y-7.06
X3.89Y-6.1
X3.89Y-6.4
X3.1Y-5.63
X3.1Y-5.93
X3.08Y-7.07
X3.08Y-7.37
X5.02Y-5.74
X5.02Y-6.04
X4.01Y-5.82
X4.21Y-5.82
X4.32Y-5.74
X4.32Y-6.04
X4.2Y-6.74
X4.2Y-6.94
X4.85Y-6.14
X4.85Y-6.44
X3.18Y-7.07
X3.18Y-7.37
X4.27Y-7.92
X4.57Y-7.92
X4.14Y-7.07
X4.14Y-7.37
X3.0Y-5.63
X3.0Y-5.93
X3.87Y-6.67
X3.87Y-6.97
X3.67Y-6.09
X3.67Y-6.39
X3.89Y-5.7
X3.89Y-6.0
X2.94Y-6.73
X2.94Y-7.03
X3.2Y-5.63
X3.2Y-5.93
X4.54Y-5.79
X4.54Y-5.89
X4.54Y-5.99
X4.42Y-5.74
X4.42Y-6.04
X3.74Y-5.77
X3.74Y-5.87
X3.74Y-5.97
X3.07Y-6.39
X3.37Y-6.39
X2.91Y-7.48
X3.21Y-7.48
X4.24Y-7.07
X4.24Y-7.37
X3.66Y-7.07
X3.66Y-7.37
X3.9Y-7.07
X3.9Y-7.37
X4.51Y-6.18
X4.51Y-6.38
X4.78Y-5.74
X4.78Y-6.04
X3.47Y-6.09
X3.47Y-6.39
X4.75Y-6.14
X4.75Y-6.44
X3.57Y-6.09
X3.57Y-6.39
X4.36Y-6.77
X4.36Y-6.87
X4.36Y-6.97
X3.31Y-7.48
X3.61Y-7.48
X4.65Y-6.14
X4.65Y-6.44
X4.57Y-7.76
X4.67Y-7.76
X4.04Y-8.14
X4.14Y-8.04
X4.14Y-8.24
X3.96Y-5.62
X4.26Y-5.62
X3.3Y-6.67
X3.3Y-6.97
X4.74Y-7.07
X4.74Y-7.37
X3.8Y-5.4
X4.1Y-5.4
X4.01Y-5.92
X4.21Y-5.92
X4.74Y-6.67
X4.74Y-6.97
X2.91Y-7.15
X2.91Y-7.25
X2.91Y-7.35
X4.23Y-6.13
X4.23Y-6.23
X4.23Y-6.33
X4.1Y-6.75
X4.1Y-6.95
X4.48Y-7.07
X4.48Y-7.37
X4.64Y-6.67
X4.64Y-6.97
X3.06Y-6.73
X3.06Y-6.83
X3.06Y-6.93
X4.84Y-7.07
X4.84Y-7.37
X3.77Y-6.67
X3.77Y-6.97
X2.89Y-6.05
X2.99Y-6.05
X3.09Y-6.05
X3.68Y-8.14
X3.78Y-8.04
X3.78Y-8.24
X3.35Y-6.05
X3.35Y-6.25
X3.2Y-6.67
X3.2Y-6.97
X4.11Y-6.12
X4.11Y-6.42
X3.46Y-5.64
X3.46Y-5.94
X4.6Y-7.1
X4.6Y-7.2
X4.6Y-7.3
X2.9Y-6.19
X2.9Y-6.29
T3
X3.72Y-7.76
X3.91Y-7.48
X4.3Y-5.42
X4.4Y-5.42
X3.92Y-7.76
X4.12Y-7.76
X4.01Y-7.48
X3.06Y-7.76
X4.11Y-7.48
X4.86Y-7.76
X4.02Y-7.76
X3.81Y-7.48
X4.22Y-7.76
X4.21Y-7.48
X2.87Y-5.44
X3.82Y-7.76
X3.71Y-7.48
T4
X3.76Y-5.51
X3.96Y-5.51
X4.16Y-5.51
X2.98Y-6.55
X3.18Y-6.55
X3.38Y-6.55
X4.54Y-5.51
X4.74Y-5.51
X4.94Y-5.51
X4.54Y-6.55
X4.74Y-6.55
X4.94Y-6.55
X3.76Y-6.55
X3.96Y-6.55
X4.16Y-6.55
X2.98Y-5.51
X3.18Y-5.51
X3.38Y-5.51
T5
X3.1Y-8.08
X3.1Y-8.28
X3.1Y-8.48
X3.3Y-8.08
X3.3Y-8.28
X3.3Y-8.48
X3.5Y-8.08
X3.5Y-8.28
X3.5Y-8.48
X4.42Y-8.08
X4.42Y-8.28
X4.42Y-8.48
X4.62Y-8.08
X4.62Y-8.28
X4.62Y-8.48
X4.82Y-8.08
X4.82Y-8.28
X4.82Y-8.48
T0
M30
